<svg xmlns="http://www.w3.org/2000/svg" version="1.1" xmlnsXlink="http://www.w3.org/1999/xlink" xmlns:svgjs="http://svgjs.dev/svgjs" width="1000" height="623" viewBox="0 0 1000 623"><g transform="matrix(1,0,0,1,-0.6060606060606233,0.2522267206477409)"><svg viewBox="0 0 396 247" data-background-color="#ffffff" preserveAspectRatio="xMidYMid meet" height="623" width="1000" xmlns="http://www.w3.org/2000/svg" xmlnsXlink="http://www.w3.org/1999/xlink"><g id="tight-bounds" transform="matrix(1,0,0,1,0.2400000000000091,-0.09999999999999432)"><svg viewBox="0 0 395.52 247.2" height="247.2" width="395.52"><g><svg></svg></g><g><svg viewBox="0 0 395.52 247.2" height="247.2" width="395.52"><g transform="matrix(1,0,0,1,84.59524082840235,47.215199999999996)"><svg viewBox="0 0 226.32951834319528 152.7696" height="152.7696" width="226.32951834319528"><g><svg viewBox="0 0 226.32951834319528 152.7696" height="152.7696" width="226.32951834319528"><g><svg viewBox="0 0 226.32951834319528 152.7696" height="152.7696" width="226.32951834319528"><g><svg viewBox="0 0 226.32951834319528 152.7696" height="152.7696" width="226.32951834319528"><g><svg viewBox="0 0 226.32951834319528 152.7696" height="152.7696" width="226.32951834319528"><g><svg viewBox="0 0 226.32951834319528 152.7696" height="152.7696" width="226.32951834319528"><g transform="matrix(1,0,0,1,0,0)"><svg width="226.32951834319528" viewBox="2.3499999046325684 -33.099998474121094 50.06999969482422 33.79999923706055" height="152.7696" data-palette-color="#000000"><path d="M17.05 0.7L17.05 0.7Q12.73 0.7 9.41-1.2 6.1-3.1 4.23-6.88 2.35-10.65 2.35-16.25L2.35-16.25Q2.35-21.95 4.23-25.69 6.1-29.43 9.41-31.26 12.73-33.1 17.05-33.1L17.05-33.1Q21.4-33.1 24.73-31.21 28.05-29.33 29.93-25.58 31.8-21.83 31.8-16.25L31.8-16.25Q31.8-10.58 29.93-6.8 28.05-3.03 24.73-1.16 21.4 0.7 17.05 0.7ZM17.05-4.65L17.05-4.65Q21.03-4.65 23.36-7.65 25.7-10.65 25.7-16.3L25.7-16.3Q25.7-21.75 23.36-24.78 21.03-27.8 17.05-27.8L17.05-27.8Q13.15-27.8 10.8-24.76 8.45-21.73 8.45-16.25L8.45-16.25Q8.45-10.63 10.8-7.64 13.15-4.65 17.05-4.65ZM34.92-1.35L34.92-1.35 34.92-7.25Q36.92-6.1 38.84-5.58 40.75-5.05 42.37-5.05L42.37-5.05Q44.52-5.05 45.5-6.3 46.47-7.55 46.47-10.1L46.47-10.1 46.47-32.45 52.42-32.45 52.42-10.1Q52.42-6.18 51.2-3.8 49.97-1.43 47.82-0.36 45.67 0.7 42.87 0.7L42.87 0.7Q40.67 0.7 38.67 0.11 36.67-0.48 34.92-1.35Z" opacity="1" transform="matrix(1,0,0,1,0,0)" fill="#000000" class="undefined-text-0" data-fill-palette-color="primary" id="text-0"></path></svg></g></svg></g></svg></g></svg></g></svg></g></svg></g></svg></g><path d="M266.897 41.215L266.897 0 19.697 0 19.697 247.2 266.897 247.2 266.897 205.985 253.12 205.985 253.12 233.423 33.473 233.423 33.473 13.777 253.12 13.777 253.12 41.215Z" fill="#000000" stroke="transparent" data-fill-palette-color="primary"></path></svg></g><defs></defs></svg><rect width="395.52" height="247.2" fill="none" stroke="none" visibility="hidden"></rect></g></svg></g></svg>